<svg fill="none" version="1.1" viewBox="0 0 50 35" xmlns="http://www.w3.org/2000/svg">
  <mask id="mask0" x="0" y="0" width="51" height="35" mask-type="alpha" maskUnits="userSpaceOnUse">
    <g fill="#fff">
      <path d="m17.845 14.458-10.419 10.333-1.2034-1.1933 10.419-10.333c4.3732-4.3368 11.535-4.3368 15.908 0 0.8805 0.8732 1.5849 1.8628 2.1132 2.9398l-1.2914 1.2806c-0.4696-1.106-1.1447-2.1247-2.0252-3.027-3.7275-3.6965-9.7736-3.6965-13.472 0z"/>
      <path d="m16.524 11.839-11.006 10.915-1.2034-1.1934 11.006-10.915c5.3417-5.2973 14.088-5.3555 19.43-0.0873 0.9685 0.9605 1.761 2.0374 2.3773 3.1725l-1.2914 1.2807c-0.5576-1.1643-1.3501-2.2703-2.3186-3.2599-4.6667-4.6278-12.327-4.5405-16.994 0.0873z"/>
      <path d="m15.145 8.9865-11.799 11.701-1.2034-1.1933 11.799-11.701c6.2516-6.1996 16.319-6.054 22.57 0.14553 1.1153 1.106 2.0545 2.3576 2.7589 3.6964l-1.2621 1.2516c-0.675-1.368-1.5849-2.6195-2.7296-3.7547-5.6058-5.5592-14.558-5.7048-20.164-0.14553z"/>
      <path d="m13.325 6.5416-12.122 12.021-1.2034-1.1934 12.122-12.021c7.1908-7.131 18.931-7.131 26.122 0 1.262 1.2516 2.3186 2.6778 3.1404 4.1622l-1.262 1.2516c-0.7925-1.5136-1.8197-2.9398-3.0818-4.2204-6.545-6.4906-17.17-6.4906-23.715 0z"/>
      <path d="m32.461 20.542 10.419-10.333 1.2034 1.1933-10.419 10.333c-4.3732 4.3368-11.535 4.3368-15.908 0-0.8805-0.8732-1.5849-1.8628-2.1132-2.9397l1.2914-1.2807c0.4696 1.106 1.1447 2.1247 2.0252 3.027 3.7274 3.6965 9.7736 3.6965 13.472 0z"/>
      <path d="m33.782 23.161 11.006-10.915 1.2034 1.1933-11.006 10.915c-5.3417 5.2973-14.088 5.3555-19.43 0.0873-0.9685-0.9605-1.761-2.0374-2.3773-3.1726l1.2914-1.2806c0.5576 1.1642 1.3501 2.2702 2.3186 3.2598 4.6667 4.6279 12.327 4.5406 16.994-0.0873z"/>
      <path d="m35.162 26.014 11.799-11.701 1.2034 1.1933-11.799 11.701c-6.2515 6.1995-16.319 6.054-22.57-0.1456-1.1153-1.106-2.0545-2.3576-2.7589-3.6964l1.262-1.2516c0.6751 1.368 1.5849 2.6196 2.7296 3.7547 5.6059 5.5592 14.558 5.7048 20.164 0.1455z"/>
      <path d="m36.981 28.458 12.122-12.021 1.2034 1.1933-12.122 12.021c-7.1908 7.131-18.931 7.131-26.122 0-1.2621-1.2515-2.3187-2.6777-3.1405-4.1621l1.2621-1.2516c0.7924 1.5135 1.8197 2.9397 3.0817 4.2204 6.5451 6.4906 17.17 6.4906 23.715 0z"/>
    </g>
  </mask>
  <g mask="url(#mask0)">
    <rect width="50" height="35" fill="url(#paint0_linear)"/>
  </g>
  <defs>
    <linearGradient id="paint0_linear" x1="-1.0112e-7" x2="50" y1="18" y2="18" gradientUnits="userSpaceOnUse">
      <stop stop-color="#63AEF8" offset="0"/>
      <stop stop-color="#95DFFB" offset="1"/>
    </linearGradient>
  </defs>
</svg>
